/* XPM */
static char *result[] = {
/* columns rows colors chars-per-pixel */
"112 16 8 1 ",
"  c #211F30",
". c #BA570B",
"X c #9C1B4D",
"o c #CE8B16",
"O c #E1CA33",
"+ c #F7EC8A",
"@ c white",
"# c None",
/* pixels */
"################################################################################################################",
"######################    #############  #######################################################################",
"#####      ########## @@@@ ########### @@ #############  ############################################      #####",
"#### ++@@@@ ######## +ooo@@ ######### +o@@ ########### @@ #############  #############    ########## +++@@@ ####",
"### +oooooo@ ###### O.O++o@@ ######## O.@@ ########### @@ ############ ++ ########### ++++ ######## +.ooooo@ ###",
"## O.O++++Oo@ ##### O.oooo@@ ######## O.@@ ########### @@ ########### @@o+ ######### @@.oo+ ###### +.O++++Oo@ ##",
"## O.+oooo+o@ ##### O.ooOo@@ ######## O.@@ ########### @@ ########### @@.O ######## @@.++Oo+ ##### +.+oooo+o+ ##",
"## O.+oo+O+o@ ##### OXoo+o@@ ######## oX@@ ########### @@ ########### @@.O ######## ++Xoooo+ ##### OX+oo+O+o+ ##",
"## OXOoo+++o@ ##### OXo..o++ ######## oX++ ########### @@ ########### @@XO ######## ++XooOo+ ##### OXOoo+++o+ ##",
"## OXOo..o+o+ ##### OX.O+o++ ######## oX++ ########### ++ ########### ++Xo ######## OOXoo+oO ##### OXOo..o+o+ ##",
"## OXoOO++Oo+ ###### OX..++ ######### oX++ ########### ++ ########### ++Xo ######## OOXo...O ##### OXoOO++O.+ ##",
"### OXXX...+ ######## OOOO ########### OO ############ ++ ########### OOXo ######## OOX+O..O ###### OXXXX..+ ###",
"#### OOOOOO ##########    #############  ############# OO ########### OOXo ######### OOXX.O ######## OOOOO+ ####",
"#####      ############################################  ############# oo ########### OOOO ##########      #####",
"#######################################################################  #############    ######################",
"################################################################################################################"
};
