/* XPM */
static char *_d9ad9c835f640c8ba92fea136468e8bwJQOEi4HDcyerMCF[] = {
/* columns rows colors chars-per-pixel */
"192 32 10 1 ",
"  c #94A0BA",
". c #5E2C29",
"X c #1C121B",
"o c #FDA216",
"O c #1C1A30",
"+ c #FC5003",
"@ c #2A304E",
"# c #667291",
"$ c #FCFEFE",
"% c None",
/* pixels */
"%%%%%%%%%%%%%%%%%%%%%%%%%%%%%%%%%%%%%%%%%%%%%%%%%%%%%%%%%%%%%%%%%%%%%%%%%%%%%%%%%%%%%%%%%%%%%%%%%%%%%%%%%%%%%%%%%%%%%%%%%%%%%%%%%%%%%%%%%%%%%%%%%%%%%%%%%%%%%%%%%%%%%%%%%%%%%%%%%%%%%%%%%%%%%%%%",
"%%%%%%%%%%%%%%%%%%%%%%%%%%%%%%%%%%%%%%%%%%%%%%%%%%%%%%%%%%%%%%%%%%%%%%%%%%%%%%%%%%%%%%%%%%%%%%%%%%%%%%%%%%%%%%%%%%%%%%%%%%%%%%%%%%%%%%%%%%%%%%%%%%%%%%%%%%%%%%%%%%%%%%%%%%%%%%%%%%%%%%%%%%%%%%%%",
"%%%%%%%%%%%%%%%%%%%%%%%%%%%%%%%%%%%%%%%%%%%%%%%%%%%%%%%%%%%%%%%%%%%%%%%%%%%%%%%%%%%%%%%%%%%%%%%%%%%%%%%%%%%%%%%%%%%%%%%%%%%%%%%%%%%%%%%%%%%%%%%%%%%%%%%%%%%%%%%%%%%%%%%%%%%%%%%%%%%%%%%%%%%%%%%%",
"%%%%%%%%%%%%%%%%%%%%%%%%%%%%%%%%%%%%%%%%%%%%%%%%%%%%%%%%%%%%%%%%%%%%%%%%%%%%%%%%%%%%%%%%%%%%%%%%%%%%%%%%%%%%%%%%%%%%%%%%%%%%%%%%%%%%%%%%%%%%%%%%%%%%%%%%%%%%%%%%%%%%%%%%%%%%%%%%%%%%%%%%%%%%%%%%",
"%%%%%%%%%%%%%%%%%%%%%%%%%%%%%%%%%%%%%%%%%%%%%%%%%%%%%%%%%%%%%%%%%%%%%%%%%%%%%%%%%%%%%%%%%%%%%%%%%%%%%%%%%%%%%%%%%%%%%%%%%%%%%%%%%%%%%%%%%%%%%%%%%%%%%%%%%%%%%%%%%%%%%%%%%%%%%%%%%%%%%%%%%%%%%%%%",
"%%%%%%%%%%%%%%%%%%%%%%%%%%%%%%%%%%%%%%%%%%%%%%%%%%%%%%%%%%%%%%%%%%%%%%%%%%%%%%%%%%%%%%%%%%%%%%%%%%%%%%%%%%%%%%%%%%%%%%%%%%%%%%%%%%%%%%%%%%%%%%%%%%%%%%%%%%%%%%%%%%%%%%%%%%%%%%%%%%%%%%%%%%%%%%%%",
"%%%%%%%%%%%%%%@@@@@@%%%%%%%%%%%%%%%%%%%%%%%%%%@@@@@@%%%%%%%%%%%%%%%%%%%%%%%%%%%%%%%%%%%%%%%%%%%%%%%%%%%%%%%%%%@@@@@@%%%%%%%%%%%%%%%%%%%%%%%%%%@@@@@@%%%%%%%%%%%%%%%%%%%%%%%%%%%%%%%%%%%%%%%%%%%%",
"%%%%%%%%%%%%@@$$$$$ @@%%%%%%%%%%%%%%%%%%%%%%@@$$$$$ @@%%%%%%%%%%%%%%%%%%%%%%%%%%%%%%%%%%%%%%%%%%%%%%%%%%%%%%@@$$$$$ @@%%%%%%%%%%%%%%%%%%%%%%@@$$$$$ @@%%%%%%%%%%%%%%%%%%%%%%%%%%%%%%%%%%%%%%%%%%",
"%%%%%%%%%%@@$$$$$$$$  @%%%%%%%%%%%%%%%%%%%@@$$$$$$$$  @%%%%%%%%%%%%%%%%%%%%%%%@@@@@@%%%%%%%%%%%%%%%%%%%%%%@@$$$$$$$$  @%%%%%%%%%%%%%%%%%%%@@$$$$$$$$  @%%%%%%%%%%%%%%%%%%%%%%%@@@@@@%%%%%%%%%%%%",
"%%%%%%%%%@$$$$$####### @%%%%%%%%%%%%%%%%%@$$$$$####### @%%%%%%%%%%%%%%%%%%%%@@$$$$$ @@%%%%%%%%%%%%%%%%%%%@$$$$$####### @%%%%%%%%%%%%%%%%%@$$$$$####### @%%%%%%%%%%%%%%%%%%%%@@$$$$$ @@%%%%%%%%%%",
"%%%%%%%%@$$$$$#########@%%%%%%%%%%%%%%%%@$$$$$#########@%%%%%%%%%%%%%%%%%%@@$$$$$$$$  @%%%%%%%%%%%%%%%%%@$$$$$#########@%%%%%%%%%%%%%%%%@$$$$$#########@%%%%%%%%%%%%%%%%%%@@$$$$$$$$  @%%%%%%%%%",
"%%%%%%%@$$$$$$###@@####@@%%%%%%%%%%%%%%@$$$$$$###@@####@@%%%%%%%%%%%%%%%@@$$$$$####### @%%%%%%%%%%%%%%%@$$$$$$###@@####@@%%%%%%%%%%%%%%@$$$$$$###@@####@@%%%%%%%%%%%%%%%@@$$$$$####### @%%%%%%%%",
"%%%%%%%@$$$$$###@$$####$@%%%%%%%%%%%%%@$$$$$$###@$$####$@%%%%%%%%%%%%%%@$$$$$$#########@%%%%%%%%%%%%%%%@$$$$$###@$$####$@%%%%%%%%%%%%%@$$$$$$###@$$####$@%%%%%%%%%%%%%%@$$$$$$#########@%%%%%%%%",
"%%%%%%@$$$$$$###O$$####$@%%%%%%%%%%%%@$$$$$$$###O$$####$@%%%%%%%%%%%%%@$$$$$$$###@@####@@%%%%%%%%%%%%%@$$$$$$###O$$####$@%%%%%%%%%%%%@$$$$$$$###O$$####$@%%%%%%%%%%%%%@$$$$$$$###@@####@@%%%%%%%",
"%%%%%%@$$$$$$###OOO#XX#O#@%%%%%%%%%%%@$$$#$$$###OOO#XX#O#@%%%%%%%%%%%@$$$$$$$###@$$####$@%%%%%%%%%%%%%@$$$$$$###OOO#XX#O#@%%%%%%%%%%%@$$$#$$$###OOO#XX#O#@%%%%%%%%%%%@$$$$$$$###@$$####$@%%%%%%%",
"%%%%%%@$$#$$$#######XXX##@%%%%%%%%%%%@@@@#$$$#######XXX##@%%%%%%%%%%%@$$$#$$$###OOO####O@%%%%%%%%%%%%%@$$#$$$#######XXX##@%%%%%%%%%%%@@@@#$$$#######XXX##@%%%%%%%%%%%@$$$#$$$###OOO####O@%%%%%%%",
"%%%%%%%@@#$$$#######XXX##@%%%%%%%%%%%%%%@ $$$#######XXX##@%%%%%%%%%%%%@@@#$$$###OOO#XX#O#@%%%%%%%%%%%%%@@#$$$#######XXX##@%%%%%%%%%%%%%%@ $$$#######XXX##@%%%%%%%%%%%%@@@#$$$###OOO#XX#O#@%%%%%%",
"%%%%%%%%@ $$$$######@@X##@%%%%%%%%%%%%%%@$$$$$######@@X##@%%%%%%%%%%%%%%@ $$$#######XXX##@%%%%%%%%%%%%%%@ $$$$######@@X##@%%%%%%%%%%%%%%@$$$$$######@@X##@%%%%%%%%%%%%%%@ $$$#######XXX##@%%%%%%",
"%%%%%%%%%@$$$$##########@%%%%%%%%%%%%%%%%@$$$$##########@%%%%%%%%%%%%%%%@$$$$#######XXX##@%%%%%%%%%%%%%%%@$$$$##########@%%%%%%%%%%%%%%%%@$$$$##########@%%%%%%%%%%%%%%%@$$$$#######XXX##@%%%%%%",
"%%%%%%%%%@$$$$$####$  ##@%%%%%%%%%%%%%%%%@$$$$$####$  ##@%%%%%%%%%%%%%%%@$$$$$######@@X##@%%%%%%%%%%%%%%%@$$$$$####$  ##@%%%%%%%%%%%%%%%%@$$$$$####$  ##@%%%%%%%%%%%%%%%@$$$$$######@@X##@%%%%%%",
"%%%%%%%%%%@..$$$$$$$   @%%%%%%%%%%%%%%%%%@@.....$$$$   @%%%%%%%%%%%%%%%%%@$$$$##########@%%%%%%%%%%%%%%%@$@.....$$$$   @%%%%%%%%%%%%%%%%%@@..$$$$$$$   @%%%%%%%%%%%%%%%%%@$$$$##########@%%%%%%%",
"%%%%%%%%%%@$ ....$$  .@%%%%%%%%%%%%%%%%%%@$$$$$ ......@%%%%%%%%%%%%%%%%%%@@..$$####$  ##@%%%%%%%%%%%%%%@$$$$$$$ ......@#@%%%%%%%%%%%%%%%@$$$ ....$$  .@@@%%%%%%%%%%%%%%%%@$$$$$####$  ##@%%%%%%%",
"%%%%%%%%%%@$$$$# ....#@%%%%%%%%%%%%%%%%%@$$$$$#$$ +oo##@%%%%%%%%%%%%%%%%@$$$ ..$$$$$ .@@%%%%%%%%%%%%%%%@$$$$#$$$$ +oo###@%%%%%%%%%%%%%%%@$$$$#$$ ....###@%%%%%%%%%%%%%%%%@@..$$$$$$$   @%%%%%%%%",
"%%%%%%%%%%@$$$$#$$+oo#@%%%%%%%%%%%%%%%%%@$$$$$#$$$+oo##@%%%%%%%%%%%%%%%@$$$$$$#...$ #.##@%%%%%%%%%%%%%%@$$$#$$$$$$+oo###@%%%%%%%%%%%%%%%@$$$#$$$$$+oo###@%%%%%%%%%%%%%%%%@$$ ..$$$$  .@%%%%%%%%%",
"%%%%%%%%%@#$$$$#$$+oo#@%%%%%%%%%%%%%%%%%@$$$$#$$$$+oo##@%%%%%%%%%%%%%%%@$$$$$#$$$ ...###@%%%%%%%%%%%%%%%@@@#$$$$$$+oo@@@%%%%%%%%%%%%%%%%@$$$#$$$$$+oo###@%%%%%%%%%%%%%%%@$$$$$#...$  .#@%%%%%%%%",
"%%%%%%%%@$$####$$ +oo@%%%%%%%%%%%%%%%%%%%@###$$$$$  ##@%%%%%%%%%%%%%%%%@$$$$$#$$$$+oo###@%%%%%%%%%%%%%%%%%%@$$$$$   @%%%%%%%%%%%%%%%%%%%%@@@$$$$$$+oo@@@%%%%%%%%%%%%%%%%@$$$$#$$$ ...##@%%%%%%%%",
"%%%%%%%@$$$$$$$$  ###@%%%%%%%%%%%%%%%%%%@$$$$$$$$  ##@%%%%%%%%%%%%%%%%%@$$$$#$$$$$+oo##@%%%%%%%%%%%%%%%%%%%@$$$$ ###@%%%%%%%%%%%%%%%%%%%%%%%@$$$$ ##@%%%%%%%%%%%%%%%%%%%@$$$$#$$$$+oo##@%%%%%%%%",
"%%%%%%%@$$$$$$$@#####@%%%%%%%%%%%%%%%%%%@$$$$$$$  ###@%%%%%%%%%%%%%%%%%%@###$$$$$$+oo@@%%%%%%%%%%%%%%%%%%%%@$$$$###@%%%%%%%%%%%%%%%%%%%%%%%%@$$$$@#@%%%%%%%%%%%%%%%%%%%%%@@##$$$$ +oo@@%%%%%%%%%",
"%%%%%%%@$$$$$$@@#####@%%%%%%%%%%%%%%%%%%@$$$$$@@@####@%%%%%%%%%%%%%%%%%%%@$$$$$$$  #@%%%%%%%%%%%%%%%%%%%%%%@$$$$###@%%%%%%%%%%%%%%%%%%%%%%%%@$$$$@#@%%%%%%%%%%%%%%%%%%%%%%%@$$$$  +oo@%%%%%%%%%%",
"%%%%%%%%@$$$$@%@@@@@@%%%%%%%%%%%%%%%%%%%%@$$$@%%@####@%%%%%%%%%%%%%%%%%%%@$$$$$$  ###@%%%%%%%%%%%%%%%%%%%%%%@@@@##@%%%%%%%%%%%%%%%%%%%%%%%%%@$$$@#@%%%%%%%%%%%%%%%%%%%%%%%%@$$$$@###@%%%%%%%%%%%",
"%%%%%%%%%@@@@%%%%%%%%%%%%%%%%%%%%%%%%%%%%%@@@%%%@@@@@%%%%%%%%%%%%%%%%%%%%@$$$$@@@####@%%%%%%%%%%%%%%%%%%%%%%%%@@@@%%%%%%%%%%%%%%%%%%%%%%%%%%%@@@@@%%%%%%%%%%%%%%%%%%%%%%%%%@$$$$@##@%%%%%%%%%%%%",
"%%%%%%%%%%%%%%%%%%%%%%%%%%%%%%%%%%%%%%%%%%%%%%%%%%%%%%%%%%%%%%%%%%%%%%%%%%@@@@%%%@###@%%%%%%%%%%%%%%%%%%%%%%%%%%%%%%%%%%%%%%%%%%%%%%%%%%%%%%%%%%%%%%%%%%%%%%%%%%%%%%%%%%%%%@$$$$@@@%%%%%%%%%%%%%"
};
