/* XPM */
static char *_ce00d1261f94751f134cd3509c76be6scmfX3sf4mHlJi5M[] = {
/* columns rows colors chars-per-pixel */
"256 32 10 1 ",
"  c #5E2C29",
". c #1C121B",
"X c #FDA216",
"o c #1C1A30",
"O c #FC5003",
"+ c #94A0BA",
"@ c #2A304E",
"# c #667291",
"$ c #FCFEFE",
"% c None",
/* pixels */
"%%%%%%%%%%%%%%%%%%%%%%%%%%%%%%%%%%%%%%%%%%%%%%%%%%%%%%%%%%%%%%%%%%%%%%%%%%%%%%%%%%%%%%%%%%%%%%%%%%%%%%%%%%%%%%%%%%%%%%%%%%%%%%%%%%%%%%%%%%%%%%%%%%%%%%%%%%%%%%%%%%%%%%%%%%%%%%%%%%%%%%%%%%%%%%%%%%%%%%%%%%%%%%%%%%%%%%%%%%%%%%%%%%%%%%%%%%%%%%%%%%%%%%%%%%%%%%%%",
"%%%%%%%%%%%%%%%%%%%%%%%%%%%%%%%%%%%%%%%%%%%%%%%%%%%%%%%%%%%%%%%%%%%%%%%%%%%%%%%%%%%%%%%%%%%%%%%%%%%%%%%%%%%%%%%%%%%%%%%%%%%%%%%%%%%%%%%%%%%%%%%%%%%%%%%%%%%%%%%%%%%%%%%%%%%%%%%%%%%%%%%%%%%%%%%%%%%%%%%%%%%%%%%%%%%%%%%%%%%%%%%%%%%%%%%%%%%%%%%%%%%%%%%%%%%%%%%%",
"%%%%%%%%%%%%%%%%%%%%%%%%%%%%%%%%%%%%%%%%%%%%%%%%%%%%%%%%%%%%%%%%%%%%%%%%%%%%%%%%%%%%%%%%%%%%%%%%%%%%%%%%%%%%@@@@@@%%%%%%%%%%%%%%%%%%%%%%%%%%@@@@@@%%%%%%%%%%%%%%%%%%%%%%%%%%%%%%%%%%%%%%%%%%%%%%%%%%%%%%%%%%%%%%%%%%%%%%%%%%%%%%%%%%%%%%%%%%%%%%%%%%%%%%%%%%%%%%",
"%%%%%%%%%%%%%%%%%%%%%%%%%%%%%%%%%%%%%%%%%%%%%%%%%%%%%%%%%%%%%%%%%%%%%%%%%%%%%%%%%%%%%%%%%%%%%%%%%%%%%%%%%%@@$$$$$+@@%%%%%%%%%%%%%%%%%%%%%%@@$$$$$+@@%%%%%%%%%%%%%%%%%%%%%%%%%%%%%%%%%%%%%%%%%%%%%%%%%%%%%%%%%%%%%%%%%%%%%%%%%%%%%%%%%%%%%%%%%%%%%%%%%%%%%%%%%%%%",
"%%%%%%%%%%%%%%%%%%%%%%%%%%%%%%%%%%%%%%%%%%%%%%%%%%%%%%%%%%%%%%%%%%%%%%%%%%%%%%%%%%%%%%%%%%%%%%%%%%%%%%%%@@$$$$$$$$++@%%%%%%%%%%%%%%%%%%%@@$$$$$$$$++@%%%%%%%%%%%%%%%%%%%%%%%@@@@@@%%%%%%%%%%%%%%%%%%%%%%%%%%%%%%%%%%%%%%%%%%%%%%%%%%%%%%%%%%%%%%%%%%%%%%%%%%%%%%",
"%%%%%%%%%%%%%%%%%%%%%%%%%%%%%%%%%%%%%%%%%%%%%%%%%%%%%%%%%%%%%%%%%%%%%%%%%%%%%%%%%%%%%%%%%%%%%%%%%%%%%%%@$$$$$#######+@%%%%%%%%%%%%%%%%%@$$$$$#######+@%%%%%%%%%%%%%%%%%%%%@@$$$$$+@@%%%%%%%%%%%%%%%%%%%%%%%%%%%%%%%%%%%%%%%%%%%%%%%%%%%%%%%%%%%%%%%%%%%%%%%%%%%%",
"%%%%%%%%%%%%@@@@@@%%%%%%%%%%%%%%%%%%%%%%%%%%%%%%%%%%%%%%%%%%%%%%%%%%%%%%%%%%%%%%%%%%%%%%%%%%%%%%%%%%%%@$$$$$#########@%%%%%%%%%%%%%%%%@$$$$$#########@%%%%%%%%%%%%%%%%%%@@$$$$$$$$++@%%%%%%%%%%%%%%%%%%%%%%%%%%%%%%%%%%%%%%%%%%%%%%%%%%%%%%%@@@@@@%%%%%%%%%%%%%%",
"%%%%%%%%%%@@$$$$$+@@%%%%%%%%%%%%%%%%%%%%%%%%%%%%%%%%%%%%%%%%%%%%%%%%%%%%%%%%%%%%%%%%%%%%%%%%%%%%%%%%%@$$$$$$###@@####@@%%%%%%%%%%%%%%@$$$$$$###@@####@@%%%%%%%%%%%%%%%%@$$$$$#######+@%%%%%%%%%%%%%%%%%%%%%%%%%%%%%%%%%%%%%%%%%%%%%%%%%%%%@@$$$$$+@@%%%%%%%%%%%%",
"%%%%%%%%@@$$$$$$$$++@%%%%%%%%%%%%%%%%%%%%%%%@@@@@@%%%%%%%%%%%%%%%%%%%%%%%%%%@@@@@@%%%%%%%%%%%%%%%%%%%@$$$$$###@$$####$@%%%%%%%%%%%%%@$$$$$$###@$$####$@%%%%%%%%%%%%%%%@$$$$$#########@%%%%%%%%%%%%%%%%%%%%%%@@@@@@%%%%%%%%%%%%%%%%%%%%%%@@$$$$$$$$++@%%%%%%%%%%%",
"%%%%%%%@$$$$$#######+@%%%%%%%%%%%%%%%%%%%%@@$$$$$+@@%%%%%%%%%%%%%%%%%%%%%%@@$$$$$+@@%%%%%%%%%%%%%%%%@$$$$$$###o$$####$@%%%%%%%%%%%%@$$$$$$$###o$$####$@%%%%%%%%%%%%%%@$$$$$$###@@####@@%%%%%%%%%%%%%%%%%%%@@$$$$$+@@%%%%%%%%%%%%%%%%%%%@$$$$$#######+@%%%%%%%%%%",
"%%%%%%@$$$$$#########@%%%%%%%%%%%%%%%%%%@@$$$$$$$$++@%%%%%%%%%%%%%%%%%%%@@$$$$$$$$++@%%%%%%%%%%%%%%%@$$$$$$###ooo#..#o#@%%%%%%%%%%%@$$$#$$$###ooo#..#o#@%%%%%%%%%%%%@$$$$$$###@$$####$@%%%%%%%%%%%%%%%%%@@$$$$$$$$++@%%%%%%%%%%%%%%%%%@$$$$$#########@%%%%%%%%%%",
"%%%%%@$$$$$$###@@####@@%%%%%%%%%%%%%%%@@$$$$$#######+@%%%%%%%%%%%%%%%%%@$$$$$#######+@%%%%%%%%%%%%%%@$$#$$$#######...##@%%%%%%%%%%%@$$$#$$$#######...##@%%%%%%%%%%%@$$$$$$$###o$$####$@%%%%%%%%%%%%%%%@@$$$$$#######+@%%%%%%%%%%%%%%%@$$$$$$###@@####@@%%%%%%%%%",
"%%%%@$$$$$$###@$$####$@%%%%%%%%%%%%%%@$$$$$$#########@%%%%%%%%%%%%%%%%@$$$$$#########@%%%%%%%%%%%%%%%@@#$$$#######...##@%%%%%%%%%%%%@@@+$$$#######...##@%%%%%%%%%%%@$$$#$$$###ooo#..#o#@%%%%%%%%%%%%%@$$$$$$#########@%%%%%%%%%%%%%%%@$$$$$###@$$####$@%%%%%%%%%",
"%%%@$$$$$$$###o$$####$@%%%%%%%%%%%%%@$$$$$$$###@@####@@%%%%%%%%%%%%%%@$$$$$$###@@####@@%%%%%%%%%%%%%%%@+$$$$######@@.##@%%%%%%%%%%%%%%@$$$$$######@@.##@%%%%%%%%%%%@@@@#$$$#######...##@%%%%%%%%%%%%@$$$$$$$###@@####@@%%%%%%%%%%%%%@$$$$$$###o$$####$@%%%%%%%%%",
"%%%@$$$#$$$###ooo#..#o#@%%%%%%%%%%%@$$$$$$$###@$$####$@%%%%%%%%%%%%%@$$$$$$###@$$####$@%%%%%%%%%%%%%%%%@$$$$##########@%%%%%%%%%%%%%%%%@$$$$##########@%%%%%%%%%%%%%%%@+$$$#######...##@%%%%%%%%%%%@$$$$$$$###@$$####$@%%%%%%%%%%%%%@$$$$$$###ooo#..#o#@%%%%%%%%",
"%%%@@@@#$$$#######...##@%%%%%%%%%%%@$$$#$$$###ooo####o@%%%%%%%%%%%%@$$$$$$$###ooo####o@%%%%%%%%%%%%%%%%@$$$$$####$++##@%%%%%%%%%%%%%%%%@$$$$$####$++##@%%%%%%%%%%%%%%%@$$$$$######@@.##@%%%%%%%%%%%@$$$#$$$###ooo####o@%%%%%%%%%%%%%@$$#$$$#######...##@%%%%%%%%",
"%%%%%%@+$$$#######...##@%%%%%%%%%%%%@@$#$$$###ooo#..#o#@%%%%%%%%%%%@$$$#$$$###ooo#..#o#@%%%%%%%%%%%%%%%%@$$$$$$$$$+++@%%%%%%%%%%%%%%%%%%@$$$$$$$$$+++@%%%%%%%%%%%%%%%%%@$$$$##########@%%%%%%%%%%%%%@@$#$$$###ooo#..#o#@%%%%%%%%%%%%%@@#$$$#######...##@%%%%%%%%",
"%%%%%%@$$$$$######@@.##@%%%%%%%%%%%%%%@+$$$#######...##@%%%%%%%%%%%@@@@#$$$#######...##@%%%%%%%%%%%%%%%%%@$$$$$$$+++@%%%%%%%%%%%%%%%%%%%@ $$$$$$$+++@%%%%%%%%%%%%%%%%%%@$$$$$####$++##@%%%%%%%%%%%%%%%@+$$$#######...##@%%%%%%%%%%%%%%@+$$$$######@@.##@%%%%%%%%",
"%%%%%%%@$$$$##########@%%%%%%%%%%%%%%%@$$$$#######...##@%%%%%%%%%%%%%%@+$$$#######...##@%%%%%%%%%%%%%%%%%@ $$$$$$++#@%%%%%%%%%%%%%%%%%%%@+  $$$$$++#@%%%%%%%%%%%%%%%%%%%@$$$$$$$$$+++@%%%%%%%%%%%%%%%%@$$$$#######...##@%%%%%%%%%%%%%%%@$$$$##########@%%%%%%%%%",
"%%%%%%%@$$$$$####$++##@%%%%%%%%%%%%%%%@$$$$$######@@.##@%%%%%%%%%%%%%%@$$$$$######@@.##@%%%%%%%%%%%%%%%%@$+ $#$$$+++ @%%%%%%%%%%%%%%%%%@$$$+   $$++ #@%%%%%%%%%%%%%%%%%%@    $$$$++ @%%%%%%%%%%%%%%%%%@$$$$$######@@.##@%%%%%%%%%%%%%%%@$$$$$####$++##@%%%%%%%%%",
"%%%%%%%%@$$$$$$$$$+++@%%%%%%%%%%%%%%%%%@$$$$##########@%%%%%%%%%%%%%%%%@$$$$##########@%%%%%%%%%%%%%%%%%@$$+ #$$$+++ @%%%%%%%%%%%%%%%%@$$$$$#$+    +##@%%%%%%%%%%%%%%%@@@$$$+      ##@@@%%%%%%%%%%%%%%%@$$$$##########@%%%%%%%%%%%%%%%%%@$$$$$$$$$+++@%%%%%%%%%%",
"%%%%%%%%@  $$$$$$+++@%%%%%%%%%%%%%%%%%%@$$$$$####$++##@%%%%%%%%%%%%%%%%@$$$$$####$++##@%%%%%%%%%%%%%%%%%@$$$#  $$++ ##@%%%%%%%%%%%%%%%@$$$$#$$$$OXX+###@%%%%%%%%%%%%%@$$$$$$$#$$OXX+####@%%%%%%%%%%%%%%@$$$$+      +##@%%%%%%%%%%%%%%%%%@ $$$$$$$+++@%%%%%%%%%%%",
"%%%%%%%%@$+    $$++ #@%%%%%%%%%%%%%%%%%%@$$$$$$$$$+++@%%%%%%%%%%%%%%%@@@@$$$$$$$$$+++@@@@%%%%%%%%%%%%%%@$$$$#$+    +##@%%%%%%%%%%%%%%%@$$$#$$$$$OXX+###@%%%%%%%%%%%%%@$$$$$$#$$$OXX+####@%%%%%%%%%%%%@@@@    $$+OXX +@@@@%%%%%%%%%%%%%%@$+  $$$$$++# @%%%%%%%%%%",
"%%%%%%%%@$$$$#+    +#@%%%%%%%%%%%%%%%%%%@  $$$$$$+++@@%%%%%%%%%%%%%%@$$$$  $$$$$$+++@####@%%%%%%%%%%%%%@$$$#$$$$OXX+##@%%%%%%%%%%%%%%%%@@#$$$$$$OXX#@@@%%%%%%%%%%%%%%@$$$$$#$$$$OXX+####@%%%%%%%%%%%@$$$$$$$$$$$OXX+@####@%%%%%%%%%%%%@$$$$+   $$++ ##@%%%%%%%%%",
"%%%%%%%@$$$$#$$$OXX+##@%%%%%%%%%%%%%%%@@$$+    $$++ +#@@%%%%%%%%%%%%@$$$$$+    $$++ +####@%%%%%%%%%%%%%@$$$#$$$$OXX+##@%%%%%%%%%%%%%%%%%%@$$$$$+++##@%%%%%%%%%%%%%%%%%@@@##$$$$$++++@@@@%%%%%%%%%%%%@$$$$$$$$$$$OXX++####@%%%%%%%%%%%%@$$$$$#$+    +###@%%%%%%%%",
"%%%%%%%@$$$$#$$$OXX+##@%%%%%%%%%%%%%%@$$$$$$#$+    ++###@%%%%%%%%%%%@$$$$$$$$$+    ++####@%%%%%%%%%%%%%%@##$$$$$OXX#@@%%%%%%%%%%%%%%%%%%%@$$$$@@####@%%%%%%%%%%%%%%%%%%%%@$$$$$$+++#@%%%%%%%%%%%%%%%@$$$$$$$$$$$$++++####@%%%%%%%%%%%%@$$$$#$$$$OXX+###@%%%%%%%%",
"%%%%%%%@$$$#$$$$OXX+##@%%%%%%%%%%%%%%@$$$$$#$$$$OXX++###@%%%%%%%%%%%%@@@@##$$$$$OXX++@@@@%%%%%%%%%%%%%%%%@$$$$$+OXX#@%%%%%%%%%%%%%%%%%%%%@$$$$@@###@%%%%%%%%%%%%%%%%%%%%%@$$$$$+++##@%%%%%%%%%%%%%%%%@@@@##$$$$$+++++@@@@%%%%%%%%%%%%%@$$$#$$$$$OXX+###@%%%%%%%%",
"%%%%%%%%@##$$$$$+++#@@%%%%%%%%%%%%%%%@$$$$#$$$$$OXX+@###@%%%%%%%%%%%%%%%%@$$$$$$OXX+@%%%%%%%%%%%%%%%%%%%%@$$$$@@####@%%%%%%%%%%%%%%%%%%%%@$$$@%@###@%%%%%%%%%%%%%%%%%%%%%@$$$$@@####@%%%%%%%%%%%%%%%%%%%%@$$$$$$++++@%%%%%%%%%%%%%%%%%%@@#$$$$$$OXX#@@@%%%%%%%%%",
"%%%%%%%%%@$$$$$+++##@%%%%%%%%%%%%%%%%%@@@#$$$$$$OXX+@@@@%%%%%%%%%%%%%%%%%@$$$$$$OXX+@%%%%%%%%%%%%%%%%%%%%@$$$$@@####@%%%%%%%%%%%%%%%%%%%%%@@@@%%@@@@%%%%%%%%%%%%%%%%%%%%%@$$$$@@###@%%%%%%%%%%%%%%%%%%%%%@$$$$$$++++@%%%%%%%%%%%%%%%%%%%%@$$$$$+++##@%%%%%%%%%%%",
"%%%%%%%%%@$$$$@@####@%%%%%%%%%%%%%%%%%%%%@$$$$$+++##@%%%%%%%%%%%%%%%%%%%%@$$$$$+++##@%%%%%%%%%%%%%%%%%%%%@$$$@%@###@%%%%%%%%%%%%%%%%%%%%%%%%%%%%%%%%%%%%%%%%%%%%%%%%%%%%%@$$$@%@###@%%%%%%%%%%%%%%%%%%%%%@$$$$$+++##@%%%%%%%%%%%%%%%%%%%%@$$$$@@####@%%%%%%%%%%%",
"%%%%%%%%%@$$$$@@###@%%%%%%%%%%%%%%%%%%%%@$$$$$@@####@%%%%%%%%%%%%%%%%%%%@$$$$$@@####@%%%%%%%%%%%%%%%%%%%%@$$$@%@###@%%%%%%%%%%%%%%%%%%%%%%%%%%%%%%%%%%%%%%%%%%%%%%%%%%%%%%@@@@%%@@@@%%%%%%%%%%%%%%%%%%%%%@$$$$@@####@%%%%%%%%%%%%%%%%%%%%@$$$$@@###@%%%%%%%%%%%%",
"%%%%%%%%%@$$$@%@###@%%%%%%%%%%%%%%%%%%%%@$$$$@%@###@%%%%%%%%%%%%%%%%%%%%@$$$$@%@###@%%%%%%%%%%%%%%%%%%%%%%@@@@%%@@@@%%%%%%%%%%%%%%%%%%%%%%%%%%%%%%%%%%%%%%%%%%%%%%%%%%%%%%%%%%%%%%%%%%%%%%%%%%%%%%%%%%%%%@$$$@%@###@%%%%%%%%%%%%%%%%%%%%%@$$$@%@###@%%%%%%%%%%%%"
};
