/* XPM */
static char *b8388118d1444126e1f69ea5bb93a0e1JxP6cXsnWZSxfaIS[] = {
/* columns rows colors chars-per-pixel */
"70 70 8 1 ",
"  c #C58F5C",
". c #C5905E",
"X c #C69260",
"o c #C79463",
"O c #C79464",
"+ c #C89666",
"@ c #C89768",
"# c #C99869",
/* pixels */
"######################################################################",
"######################################################################",
"######################################################################",
"######################################################################",
"######################################################################",
"######################################################################",
"######################################################################",
"######################################################################",
"######################################################################",
"######################################################################",
"######################################################################",
"######################################################################",
"##########@.O#####################XX#####################O.@##########",
"#########@.  O###################X  X###################O  .@#########",
"########@.    O#################X    X#################O    .@########",
"#######@.      O###############X      X###############O      .@#######",
"######@.        O#############X        X#############O        .@######",
"#####@.          O##########@X          X@##########O          .+#####",
"####+.            O########@.            .@########O             +####",
"###+               O######@.              .@######O               +###",
"##+                 O####@.                .@####O                 +##",
"#+                   O##@.                  .@##O                   +#",
"+                     O@.                    .@O                     +",
"                       .                      .                       ",
"                                                                      ",
"                                                                      ",
"                                                                      ",
"           o.                     XX                     .o           ",
"          O#@.                   X##X                   .@#O          ",
"         O###@.                 X####X                 .@###O         ",
"        O#####@.               X######X               .@#####O        ",
"       O#######@.             X########X             .@#######O       ",
"      O#########@.           X##########X           .@#########O      ",
"     +###########@.         O############O         .@###########+     ",
"    +#############@.       O##############O       .@#############+    ",
"   +###############@.     O################O     .@###############+   ",
"  +#################@.   O##################O   .@#################+  ",
" +###################@. O####################O .@###################+ ",
"+#####################@O######################O@#####################+",
"######################################################################",
"######################################################################",
"######################################################################",
"###########X+#####################OO#####################+X###########",
"##########X  +###################O  O###################+  X##########",
"#########X    +#################O    O#################+    X#########",
"########X      +###############O      O###############+      X########",
"#######X        +#############O        O#############+        X#######",
"######X          +###########O          O###########+          X######",
"####@X            +#########X            X#########+            .@####",
"###@.              +#######X              X#######+              .@###",
"##@.                +#####X                X#####+                .@##",
"#@.                  +###X                  X###+                  .@#",
"@.                    +#X                    X#+                    .@",
".                      X                      X                      .",
"                                                                      ",
"                                                                      ",
"                                                                      ",
"           o.                     XX                      O           ",
"          O#@.                   X##X                    +#+          ",
"         O###@.                 X####X                  +###+         ",
"        O#####@.               X######X                +#####+        ",
"       O#######@.             X########X              +#######+       ",
"      +#########@.           X##########X            +#########+      ",
"     +############X         X############O         .@###########+     ",
"    +##############X       X##############O       .@#############+    ",
"   +################X     X################O     .@###############+   ",
"  +##################X   X##################O   .@#################+  ",
" O####################X X####################O .@###################+ ",
"O######################O######################O@#####################+",
"######################################################################"
};
