/* XPM */
static char *_ef0d0060be04fa9c88e0b2f346bf5e3KMa70QEuTauzPBsn[] = {
/* columns rows colors chars-per-pixel */
"64 64 13 1 ",
"  c None",
". c #505353",
"X c #505454",
"o c #686D6D",
"O c #798383",
"+ c #7A8282",
"@ c #7A8383",
"# c #1EA7E1",
"$ c #8C9696",
"% c #99A3A3",
"& c #99A4A4",
"* c #ACB8B8",
"= c #FFD18B",
/* pixels */
"                                                                ",
"                                                                ",
"                                                                ",
"                                                                ",
"                                                                ",
"                                                                ",
"                                                                ",
"                                                                ",
"                                                                ",
"                                                                ",
"                                                                ",
"                                                                ",
"                                                                ",
"                                                                ",
"                                                                ",
"                                                                ",
"                                                                ",
"                                                                ",
"                                                                ",
"                                                                ",
"                             ++++++                             ",
"                            ++++++++                            ",
"                           ++$%%%%$++                           ",
"                          ++$*%%%%*$++                          ",
"                          ++**oooo**++                          ",
"                          ++**oooo**++                          ",
"                         +++&*====*&+++                         ",
"                        +++++&====&+++++                        ",
"                        ++****####****++                        ",
"                        ++****####****++                        ",
"                        ++%%%%####%%%%++                        ",
"                        ++%%%%####%%%%++                        ",
"                        ++%%**####**%%++                        ",
"                        ++%%**####**%%++                        ",
"                        XXoo%%%%%%%%ooXX                        ",
"                        XXoo%%%%%%%%ooXX                        ",
"                        XXoo%%%%%%%%ooXX                        ",
"                        XXoo%%%%%%%%ooXX                        ",
"                        .XXX%%++++%%XXX.                        ",
"                         XXX%%++++%%XXX                         ",
"                          XXooXXXXooXX                          ",
"                          XXooXXXXooXX                          ",
"                          .XXXX..XXXX.                          ",
"                           .XX.  XXX.                           ",
"                                                                ",
"                                                                ",
"                                                                ",
"                                                                ",
"                                                                ",
"                                                                ",
"                                                                ",
"                                                                ",
"                                                                ",
"                                                                ",
"                                                                ",
"                                                                ",
"                                                                ",
"                                                                ",
"                                                                ",
"                                                                ",
"                                                                ",
"                                                                ",
"                                                                ",
"                                                                "
};
