/* XPM */
static char *f852ff0543084afaba5989573c06e3f2pEBkRMKEPkvLMG2J[] = {
/* columns rows colors chars-per-pixel */
"70 70 4 1 ",
"  c #BBCBCC",
". c #BECECF",
"X c #BFCFD0",
"o c #C1D1D2",
/* pixels */
"oooooooooooooooooooooooooooooooooooooooooooooooooooooooooooooooooooooo",
"oooooooooooooooooooooooooooooooooooooooooooooooooooooooooooooooooooooo",
"oooooooooooooooooooooooooooooooooooooooooooooooooooooooooooooooooooooo",
"oooooooooooooooooooooooooooooooooooooooooooooooooooooooooooooooooooooo",
"oooooooooooooooooooooooooooooooooooooooooooooooooooooooooooooooooooooo",
"oooooooooooooooooooooooooooooooooooooooooooooooooooooooooooooooooooooo",
"oooooooooooooooooooooooooooooooooooooooooooooooooooooooooooooooooooooo",
"oooooooooooooooooooooooooooooooooooooooooooooooooooooooooooooooooooooo",
"oooooooooooooooooooooooooooooooooooooooooooooooooooooooooooooooooooooo",
"oooooooooooooooooooooooooooooooooooooooooooooooooooooooooooooooooooooo",
"oooooooooooooooooooooooooooooooooooooooooooooooooooooooooooooooooooooo",
"oooooooooooooooooooooooooooooooooooooooooooooooooooooooooooooooooooooo",
"ooooooooooo..ooooooooooooooooooooo..ooooooooooooooooooooo..ooooooooooo",
"oooooooooo.  .ooooooooooooooooooo.  .ooooooooooooooooooo.  .oooooooooo",
"ooooooooo.    .ooooooooooooooooo.    .ooooooooooooooooo.    .ooooooooo",
"oooooooo.      .ooooooooooooooo.      .ooooooooooooooo.      .oooooooo",
"ooooooo.        .ooooooooooooo.        .ooooooooooooo.        .ooooooo",
"oooooo.          .ooooooooooo.          .ooooooooooo.          .oooooo",
"ooooX.            .ooooooooo.            .ooooooooo.             Xoooo",
"oooX               .ooooooo.              .ooooooo.               Xooo",
"ooX                 .ooooo.                .ooooo.                 Xoo",
"oX                   .ooo.                  .ooo.                   Xo",
"X                     .o.                    .o.                     X",
"                                                                      ",
"                                                                      ",
"                                                                      ",
"                                                                      ",
"           ..                     ..                     ..           ",
"          .oo.                   .oo.                   .oo.          ",
"         .oooo.                 .oooo.                 .oooo.         ",
"        .oooooo.               .oooooo.               .oooooo.        ",
"       .oooooooo.             .oooooooo.             .oooooooo.       ",
"      .oooooooooo.           .oooooooooo.           .oooooooooo.      ",
"     Xoooooooooooo.         .oooooooooooo.         .ooooooooooooX     ",
"    Xoooooooooooooo.       .oooooooooooooo.       .ooooooooooooooX    ",
"   Xoooooooooooooooo.     .oooooooooooooooo.     .ooooooooooooooooX   ",
"  Xoooooooooooooooooo.   .oooooooooooooooooo.   .ooooooooooooooooooX  ",
" Xoooooooooooooooooooo. .oooooooooooooooooooo. .ooooooooooooooooooooX ",
"XooooooooooooooooooooooXooooooooooooooooooooooXooooooooooooooooooooooX",
"oooooooooooooooooooooooooooooooooooooooooooooooooooooooooooooooooooooo",
"oooooooooooooooooooooooooooooooooooooooooooooooooooooooooooooooooooooo",
"oooooooooooooooooooooooooooooooooooooooooooooooooooooooooooooooooooooo",
"ooooooooooo.Xooooooooooooooooooooo..oooooooooooooooooooooX.ooooooooooo",
"oooooooooo.  Xooooooooooooooooooo.  .oooooooooooooooooooX  .oooooooooo",
"ooooooooo.    Xooooooooooooooooo.    .oooooooooooooooooX    .ooooooooo",
"oooooooo.      Xooooooooooooooo.      .oooooooooooooooX      .oooooooo",
"ooooooo.        Xooooooooooooo.        .oooooooooooooX        .ooooooo",
"oooooo.          Xooooooooooo.          .oooooooooooX          .oooooo",
"ooooo.            Xooooooooo.            .oooooooooX            .ooooo",
"oooo.              Xooooooo.              .oooooooX              .oooo",
"ooo.                Xooooo.                .oooooX                .ooo",
"oo.                  Xooo.                  .oooX                  .oo",
"o.                    Xo.                    .oX                    .o",
".                      .                      .                      .",
"                                                                      ",
"                                                                      ",
"                                                                      ",
"           ..                     ..                      .           ",
"          .oo.                   .oo.                    XoX          ",
"         .oooo.                 .oooo.                  XoooX         ",
"        .oooooo.               .oooooo.                XoooooX        ",
"       .oooooooo.             .oooooooo.              XoooooooX       ",
"      Xoooooooooo.           .oooooooooo.            XoooooooooX      ",
"     Xoooooooooooo.         .oooooooooooo.         .ooooooooooooX     ",
"    Xoooooooooooooo.       .oooooooooooooo.       .ooooooooooooooX    ",
"   Xoooooooooooooooo.     .oooooooooooooooo.     .ooooooooooooooooX   ",
"  Xoooooooooooooooooo.   .oooooooooooooooooo.   .ooooooooooooooooooX  ",
" .oooooooooooooooooooo. .oooooooooooooooooooo. .ooooooooooooooooooooX ",
".oooooooooooooooooooooo.ooooooooooooooooooooooXooooooooooooooooooooooX",
"oooooooooooooooooooooooooooooooooooooooooooooooooooooooooooooooooooooo"
};
