/* XPM */
static char *_30c692f62a64549916ab49cfe262346CYk9qwEOMkjl2shQ[] = {
/* columns rows colors chars-per-pixel */
"70 70 31 1 ",
"  c None",
". c #ABC1C1",
"X c #ACC0C0",
"o c #ACC0C1",
"O c #AEC1C2",
"+ c #AEC2C3",
"@ c #B0C3C4",
"# c #B1C4C5",
"$ c #B2C4C5",
"% c #B3C5C6",
"& c #B4C6C7",
"* c #B5C6C7",
"= c #B5C7C7",
"- c #B6C7C8",
"; c #B6C8C8",
": c #B8C8C9",
"> c #B9C9CA",
", c #B9CACB",
"< c #BACACB",
"1 c #BBCBCC",
"2 c #BDCCCD",
"3 c #BDCDCD",
"4 c #C1CFD0",
"5 c #C2D0D1",
"6 c #C3D1D2",
"7 c #C5D2D3",
"8 c #C7D4D4",
"9 c #CBD7D7",
"0 c #CCD7D8",
"q c #CFD9D9",
"w c #CFDADA",
/* pixels */
"      wwwwwwwwwwwwwwwwwwwwwwwwwwwwwwwwwwwwwwwwwwwwwwwwwwwwwwwwww      ",
"   wwwwwwwwwwwwwwwwwwwwwwwwwwwwwwwwwwwwwwwwwwwwwwwwwwwwwwwwwwwwwww    ",
"  www9<#&#+++++++<<<111111111&XX++++++++&<<<11111111<+++X+++#&&;9www  ",
" ww82@XX++++++++XX-<11111111&XXX++++++++X&<<1111111<++++++++++++@27w  ",
" w61#+XX+++++++XXXX-1111111&+++X+++++++X++&<111111<+++XX++XX+++++#14w ",
"w6<@++++++++++XXX+XX<11111#+++++++++++XX++X&11111-++X+XX+++X++++++@<6 ",
"0<++++++++X+XXXX+++++<<11#++++X+++X+XXXX++++&111&+++XXXX++XXXX+X++++<9",
"7+++++++++XXXXXX++++++-<#++++XXX++XXXXXX+++++&1&++++XXXX++XXXXXX+++++4",
"3XXX++++XX++++++XXX+++X+XX++XXXXXXXXXXXXXXX+X+#+++++XXXX++XXX+++++++X&",
"&XXXX+++XXXX++++XX++++XXX+++XXXXXXXXXXXXXX++XX++++++XXXX++XXX+++++++X+",
"@+XXXXXXXXXXXX++XXXX+++XXX++++XX+XXX+X++++++XXXXXX++XXXXXXXX++++++XXXX",
"+XX+++XXXXXXXXX+XXXX+++XXX++++XX+XXX+++X++++XXXXXX+++XX+XXXXX++++++XXX",
"++++XX+X+X+&XXXX+++XXXXXXXXX+++X++@#++++++XX++XXXXXX++++++&+XXXXXXXX++",
"++++XX++++&1-XXX++++XXXXXX+X+++++#11#+++XXXX++X+XXXX+++++<1&XXXXXXXX++",
"XX++XX+++&111<X++++XXX++++++++++#1111#++XXXX++++++XX++++<111&+XXXX++++",
"XXX+++++&11111<++++XXX+++++++++#111111#+XXXX+++++++++++<11111&XXX+++++",
"XX+++++&1111111<+++X+++++++XXX#11111111#++++XX++++++++<1111111&++XXXXX",
"XX++++&111111111<+++++++++++X@1111111111#+++XXX+++X++<111111111&++XXXX",
"XXX+X&1<111111111<++XX+X++++&<<1111111111#XXXX++XXX@111111111111<+++XX",
"XX++-<<<1111111111<+XXXX+++&<<<11111111111@XXX++XX@<1111111111111<++XX",
"+++<111111111111111<+XXX++&111111111111111<@++++X@1111111111111111<+++",
"++<11111111111111111<++++&111111111111111111#+++@111111111111111<<1<++",
"+<1111111111111111111<++&11111111111111111111#+#11111111111111111111<+",
"<111111111111111111111<-1111111111111111111111&1111111111111111111111<",
"11<<111111111111111111111111111111111111111111111111111111111111111111",
"11<<111111111111111111111111111111111111111111111111111111111111111111",
"11<<111111111111111111111111111111111111111111111111111111111111111111",
"11111111111#<111111111111111111111&&111111111111111111111<#11111111111",
"1111111111#++<111111111111111111<&++&1111111111111111111<++#1111111111",
"111111111#++++-<1111111111111111&++++&11111111111111111<++++#111111111",
"11111111#+++XXX-111111111111111&XX++++&1111111111111<1-XXX+++#11111111",
"1111111#++++XXXX<1111111111111&+XX+++++&1111111111111-XXXX++++#1111111",
"111111#+XXX+++XX+<11111111111&XXXX+++XXX&11111111111<+XXX+XXXXX@111111",
"1111<+++XXX++XXX++<111111111#++XXX++++XX+#111111111<+XXX++++XX+X+<1111",
"111<+X++XX++++XX+++<1111111#++XXX+++XXXXX+@<111111<+XX++++X+++++X+<111",
"11<+XX++XX++++XXXX++<11111#+++XXX+++XXXXXXX@11111<++XXX+++XX++X+XX+<11",
"1<++XXX+XX+++XXXX+++X-111#++XXXXXXXXX+++XXXX#111<++XXX+++++++++X++++<1",
"<+++XXXXXX++++XXXXXXXX:1#+++X+XXXXXX+++++++X+#1<++++XXXX++++++XX+++++<",
"++++XXXX++++++++++XXXXX+++++++++++XXX++++++++X@++XX+X++X++X+XXXX++XX++",
"++++XXX+++++++++++XXXXX+++++++++++XXX++++++XXX+++XXX+++X++XXXXXX+XXXXX",
"++XXX++++++++X++++XXX+XX+++XXX++++++++XXXXXXXXX+X+++XXX+XX++++++XXXX++",
"++XXX+++++++XXXXXXXX+++X+++XXX++++++++XXXXXXXXX+X++X+XX+XX+X++++XXXX++",
"XXXX+++++++&+XXXX++X++++++++XXXXXX#@++++++XXXXXXXXXX++++X+#XXX++XXX+++",
"XXXXX+++++&1<+XX++XXX++++++XXXXXX@11#+++++++XXXX++XXX++++<<&XXXXXXX+++",
"X+++XXXX+&111<+XX+++XX+XXXXX++++@<111#++++XXXX+++XXX++++<111&XXX++++XX",
"X+++XXXX&11111<+X+++XXXXXXXX+++#111111#+++XX+X++++XX+++<1111<&+X++++XX",
"XX++++X&111111<<+X++++XXXX++++#11111111#+XXX++++XXX+++<1111111&+++XXXX",
"XX+++X&1111111<<<++++XXXXX+++#1111111111#+XX++++XX+++<111111111&+XXXXX",
"XXXX+&11111111111<+++++XX+++&11111111111<&XX++++X+++<11111111111<+++++",
"XXXX<1111111111111<+++++XXX&1111111111111<&X+++++++<1111111111111<++++",
"+++<111111111111111<++++++&<11111111111111<&++++++<111111111111111<++X",
"++<11111111111111111<++++&<<11111111111111<<&++++<11111111111111111<++",
"+<1111111111111111111<++&11111111111111111111&++<1111111111111111111<+",
"<11<111111111111111111<-1111111111111111111111-<111111111111111111111<",
"11<<111111111111111111111111111111111111111111111111111111111111111111",
"1111111111111111111111111111111111111111111111111111111111111111111111",
"1111111111111111111111111111111111111111111111111111111111111111111111",
"11111111111#<111111111111111111111&&111111111111111111111<#<1111111111",
"1111111111#++<1111111111111111111&++&1111111111111111111<+++<111111111",
"111111111#++++<11111111111111111&++++&11111111111111111<+++++<11111111",
"11111<<1#+XX+++<11111111111111<&XXX+++&111111111111111<+XX++++<1111111",
"1111<<<@+++X++++<1111111111111&XXXX++++&1111111111111<++XXX++++<111111",
"11111<++++XXXX+X+<11111111111&X+++X+X+++&11111111111<+XXXX++++++<11111",
"1111<+++++XXXXXX++&111111111&XX+++XXX++++#111111111<+XXXXX+++++++<1111",
" 11<++++X+++++XXXXX&1111111&++++XXXXXX+++X@<111111<++XXXXXXXXX++++<11 ",
" 1<+++++XX++++XXXX++&11111&+++XXXXXXXX+++XX@11111<++XXXXXXXXXX++XX+<1 ",
" <++++++XXXX++XX+++++&111&++++XX+X++X+++XXXX@1<<<++++XXXXX++++++XXX+< ",
"  ++X+++XXXX++XX++++++&1&+++X+XX+++++++++XXXX@<-+++++XXX++++++++XXXX  ",
"    XXXX+++X++++++XXXXX@+X++XX++++++XXXX+++++++XXX++++++++++XXXX++    ",
"     .XX+++X++++X+XXXXXX+XX+XX++XX+XXXX+++++++XXXXX++++++X++XXXX.     "
};
